<?xml version="1.0" encoding="UTF-8"?> <!-- Generator: Adobe Illustrator 27.9.0, SVG Export Plug-In . SVG Version: 6.00 Build 0) --> <svg xmlns="http://www.w3.org/2000/svg" xmlns:xlink="http://www.w3.org/1999/xlink" id="Layer_1" x="0px" y="0px" viewBox="0 0 1920 1080" style="enable-background:new 0 0 1920 1080;" xml:space="preserve"> <style type="text/css"> .st0{fill:#2D2E83;} </style> <g> <g> <g> <path class="st0" d="M648.9,513.6c-2.3-61.2-33.8-87.9-94.4-89.3c-30.6-0.7-54.6,10.3-75.1,28.9c-19.1-22.9-39.4-39-73.8-31.5 c-33,7.2-52.9,39.8-50.6,73.3c4.2,59.2,53,134.2,94.9,175c44.2,43.1,82,35.8,124.1-2.7C624.9,620.8,651.6,587.5,648.9,513.6z M569.2,638.4c-34.9,31.6-59.3,55.2-101.4,14.1c-37.7-36.8-84-106-87.8-159.4c-1.5-21.2,10.2-42.5,31-47 c25.1-5.5,38.1,8.3,51.5,25.4c-1,1.3-2.1,2.6-3.1,3.9C400,552.4,493,696.5,577.5,608.5c22.4-23.4,29.9-56.3,24.7-87.9 c-4.5-26.9-34.7-49.3-63.4-42.9c-68.2,15.2-72.4,122.9-11,111.7c34.1-6.2,51.8-55.2,10.9-63.6l-4.2,24.6l0,0 c0.9,0.3,2,0.6,2.9,1.1c-2.2,8.2-10.8,15.2-19.5,13.4c-28.3-6.1,13.7-96.1,53.5-51.7c14,15.6,6.6,53.9-5.1,70 c-59.1,81.5-130.6-36.1-88.1-91.4c19.8-25.8,42.1-43.2,75.6-42.4c35.8,0.8,62.4,10.1,68.6,48.3 C631.6,554.4,610.8,600.8,569.2,638.4z"></path> <path class="st0" d="M599,387.5l-0.5,0.5c19-25.4,23.8-32.1,29.4-63.6H603c-5.4,28.5-12.6,29.2-25.5,50.6l20.6,14.1L599,387.5z"></path> <path class="st0" d="M670.6,450.2c36.2-12.1,41.1-21.8,65.5-50c8.4-9.7,22.9-22.3,32.4-31.3l-17.6-17.6 c-10.3,9.8-24.4,22-33.5,32.5c-20.7,23.9-23.2,32.8-56.6,43.7c-1.8,0.6-3.2,1.5-4.7,2.6l14.9,20L670.6,450.2z"></path> <path class="st0" d="M670.6,450.2c-1.3,0.4-2.7,0.9-4.1,1.3C668.7,451,668.9,451.1,670.6,450.2z"></path> <path class="st0" d="M687.5,514.4l13.7,20.8c16.5-4.9,19.6-8.8,36.2-8.6c13.5,0.2,33.6-3.8,44-12.6c-0.8,0.5-0.3,0.2-1.6,0.8 l-8.2-23.5c-12.8,5.9-14.2,10.7-33.5,10.4C718.6,501.5,705.6,506.7,687.5,514.4z"></path> <path class="st0" d="M726,608.7c-18.6-5.8-28-7.5-47.2-9.5v24.9c28.9,3,44.4,12.3,70,15.9c26.9,3.8,44.2,3.8,70.7,0l-10.6-22.5 C777.3,619.1,755.6,617.9,726,608.7z"></path> <path class="st0" d="M470.6,387.5h20.8c-2.3-31.8,0.2-27.2-14.5-54.3c-15.8-29.1-11-20.8-16.1-49.7l-20.2,4.9 c5.4,30.8,1.3,23.9,18.4,55.2C471.1,366,468.7,360.5,470.6,387.5z"></path> <path class="st0" d="M353.1,403c-24.9-15.4-52.4-29.4-81.5-34.2l-1.4,20.7c23.4,4,51.2,18.4,71.5,30.8L353.1,403z"></path> <path class="st0" d="M313.1,525.3l8.7-23.3c-32.5-6.2-99.5-5.3-131.1,3.8l11.8,22C227.8,523.1,287.5,521.8,313.1,525.3z"></path> <path class="st0" d="M339.4,608.9c-41.1,1.1-38.4,1.3-67.3,30.5l17.8,17.5c24.1-24.4,16.9-22.3,49.6-23.1V608.9z"></path> <path class="st0" d="M402.2,682.2c-0.2,0.1-0.4,0.1-0.7,0.2C401.8,682.3,401.9,682.2,402.2,682.2l-0.1-0.1 c-0.4,0.2-0.7,0.3-0.9,0.4c-30.3,8.8-22.7,57.1-71.8,85.8l11.1,22.3c41.3-24.1,40.9-39.7,61.6-77c1.8-3.3,2.8-5,5.4-7.2 c2.1-0.5,2.4-0.4,4.5-1.5l-0.8,0.4L402.2,682.2z M406.9,706.5l0.5-0.1C407.3,706.5,407.4,706.4,406.9,706.5z"></path> <path class="st0" d="M402.9,682c-0.3,0.1-0.5,0.1-0.7,0.1l0,0C402.4,682.1,402.6,682.1,402.9,682z"></path> <path class="st0" d="M503.7,745c3.3,17.4,5,35.5,9.4,51.6l24.5-4.4c-4.3-16.4-5.9-33-9.1-49.6L503.7,745z"></path> <path class="st0" d="M680.8,743.6c-25.1-18.9-39.4-37.5-59.9-61.2l-18.8,16.4c22.1,25.5,37,44.7,64.2,65.1 c9,6.7,13.3,9.5,16.3,19.9l0,0.9h24.9C707.7,766.2,694.3,753.7,680.8,743.6z"></path> <path class="st0" d="M921.8,457.6v187.1h39.5V523.9h89v-40.9h-89v-25.4c0-39.4,14.4-47.3,37.5-47.3h51.5v-40.9h-44.7 C950,369.3,921.8,399,921.8,457.6z"></path> <path class="st0" d="M1147.1,365.3c-34.6,0-75.8,15.8-75.8,90.9v101.5c0,75.1,41.2,90.9,75.8,90.9c34.6,0,75.8-15.8,75.8-90.9 V456.2C1222.9,381.1,1181.6,365.3,1147.1,365.3z M1183.3,456.2v101.5c0,36.4-9.8,50-36.3,50c-25.8,0-36.3-14.5-36.3-50V456.2 c0-36,10.2-50,36.3-50C1173.5,406.2,1183.3,419.8,1183.3,456.2z"></path> <path class="st0" d="M1406.9,448.6c0-52.6-29.7-79.3-88.1-79.3h-63.4v275.3h39.5V530.6h19.6l62.6,114.1h48.2L1356.4,524 C1383.4,514.4,1406.9,497.3,1406.9,448.6z M1367.3,449.5c0,33.6-17.8,40.2-48.6,40.2h-23.9v-79.4h23.9 C1350.3,410.2,1367.3,416.5,1367.3,449.5z"></path> <polygon class="st0" points="1422.7,410.2 1484.1,410.2 1484.1,644.6 1523.6,644.6 1523.6,410.2 1584.9,410.2 1584.9,369.3 1422.7,369.3 "></polygon> <path class="st0" d="M1682.9,410.2h46.4v-40.9h-46.8c-52.7,0-81.7,31.3-81.7,88.2V556c0,58,29.2,88.7,84.3,88.7h44.3v-40.9h-51.5 c-25.3,0-37.5-15.6-37.5-47.8v-32.1h89v-40.9h-89v-25.4C1640.3,423.1,1651.9,410.2,1682.9,410.2z"></path> </g> </g> </g> </svg> 